<?xml version="1.0" encoding="UTF-8"?>
<svg width="403px" height="8px" viewBox="0 0 403 8" version="1.1" xmlns="http://www.w3.org/2000/svg" xmlns:xlink="http://www.w3.org/1999/xlink">
    <title>Group 4 Copy</title>
    <g id="Group-4-Copy" stroke="none" stroke-width="1" fill="none" fill-rule="evenodd">
        <path d="M3.45703125,7.93945312 C4.5703125,7.93945312 5.44921875,7.59765625 6.09375,6.9140625 C6.73828125,6.23046875 7.06054688,5.25390625 7.06054688,3.984375 C7.06054688,2.67578125 6.74316406,1.68457031 6.10839844,1.01074219 C5.47363281,0.336914062 4.58984375,0 3.45703125,0 C2.34375,0 1.48925781,0.336914062 0.893554688,1.01074219 C0.297851562,1.68457031 0,2.67578125 0,3.984375 C0,5.390625 0.327148438,6.40136719 0.981445312,7.01660156 C1.63574219,7.63183594 2.4609375,7.93945312 3.45703125,7.93945312 Z" id="Path" fill="#E6BDB8" fill-rule="nonzero"></path>
        <polygon id="Path" fill="#E6BDB8" fill-rule="nonzero" points="28.359375 6.23242188 28.359375 1.77929688 13.9746094 1.77929688 13.9746094 6.23242188"></polygon>
        <polygon id="Path" fill="#E6BDB8" fill-rule="nonzero" points="47.6660156 6.23242188 47.6660156 1.77929688 33.28125 1.77929688 33.28125 6.23242188"></polygon>
        <polygon id="Path" fill="#E6BDB8" fill-rule="nonzero" points="66.9726562 6.23242188 66.9726562 1.77929688 52.5878906 1.77929688 52.5878906 6.23242188"></polygon>
        <path d="M92.9296875,7.93945312 C94.0429688,7.93945312 94.921875,7.59765625 95.5664062,6.9140625 C96.2109375,6.23046875 96.5332031,5.25390625 96.5332031,3.984375 C96.5332031,2.67578125 96.2158203,1.68457031 95.5810547,1.01074219 C94.9462891,0.336914062 94.0625,0 92.9296875,0 C91.8164062,0 90.9619141,0.336914062 90.3662109,1.01074219 C89.7705078,1.68457031 89.4726562,2.67578125 89.4726562,3.984375 C89.4726562,5.390625 89.7998047,6.40136719 90.4541016,7.01660156 C91.1083984,7.63183594 91.9335938,7.93945312 92.9296875,7.93945312 Z" id="Path" fill="#E6BDB8" fill-rule="nonzero"></path>
        <polygon id="Path" fill="#E6BDB8" fill-rule="nonzero" points="117.832031 6.23242188 117.832031 1.77929688 103.447266 1.77929688 103.447266 6.23242188"></polygon>
        <path d="M128.203125,7.93945312 C129.316406,7.93945312 130.195312,7.59765625 130.839844,6.9140625 C131.484375,6.23046875 131.806641,5.25390625 131.806641,3.984375 C131.806641,2.67578125 131.489258,1.68457031 130.854492,1.01074219 C130.219727,0.336914062 129.335938,0 128.203125,0 C127.089844,0 126.235352,0.336914062 125.639648,1.01074219 C125.043945,1.68457031 124.746094,2.67578125 124.746094,3.984375 C124.746094,5.390625 125.073242,6.40136719 125.727539,7.01660156 C126.381836,7.63183594 127.207031,7.93945312 128.203125,7.93945312 Z" id="Path" fill="#E6BDB8" fill-rule="nonzero"></path>
        <polygon id="Path" fill="#E6BDB8" fill-rule="nonzero" points="153.105469 6.23242188 153.105469 1.77929688 138.720703 1.77929688 138.720703 6.23242188"></polygon>
        <path d="M163.476562,7.93945312 C164.589844,7.93945312 165.46875,7.59765625 166.113281,6.9140625 C166.757812,6.23046875 167.080078,5.25390625 167.080078,3.984375 C167.080078,2.67578125 166.762695,1.68457031 166.12793,1.01074219 C165.493164,0.336914062 164.609375,0 163.476562,0 C162.363281,0 161.508789,0.336914062 160.913086,1.01074219 C160.317383,1.68457031 160.019531,2.67578125 160.019531,3.984375 C160.019531,5.390625 160.34668,6.40136719 161.000977,7.01660156 C161.655273,7.63183594 162.480469,7.93945312 163.476562,7.93945312 Z" id="Path" fill="#E6BDB8" fill-rule="nonzero"></path>
        <polygon id="Path" fill="#E6BDB8" fill-rule="nonzero" points="188.378906 6.23242188 188.378906 1.77929688 173.994141 1.77929688 173.994141 6.23242188"></polygon>
        <polygon id="Path" fill="#E6BDB8" fill-rule="nonzero" points="223.271484 6.23242188 223.271484 1.77929688 208.886719 1.77929688 208.886719 6.23242188"></polygon>
        <path d="M233.642578,7.93945312 C234.755859,7.93945312 235.634766,7.59765625 236.279297,6.9140625 C236.923828,6.23046875 237.246094,5.25390625 237.246094,3.984375 C237.246094,2.67578125 236.928711,1.68457031 236.293945,1.01074219 C235.65918,0.336914062 234.775391,0 233.642578,0 C232.529297,0 231.674805,0.336914062 231.079102,1.01074219 C230.483398,1.68457031 230.185547,2.67578125 230.185547,3.984375 C230.185547,5.390625 230.512695,6.40136719 231.166992,7.01660156 C231.821289,7.63183594 232.646484,7.93945312 233.642578,7.93945312 Z" id="Path" fill="#E6BDB8" fill-rule="nonzero"></path>
        <polygon id="Path" fill="#E6BDB8" fill-rule="nonzero" points="258.544922 6.23242188 258.544922 1.77929688 244.160156 1.77929688 244.160156 6.23242188"></polygon>
        <path d="M284.501953,7.93945312 C285.615234,7.93945312 286.494141,7.59765625 287.138672,6.9140625 C287.783203,6.23046875 288.105469,5.25390625 288.105469,3.984375 C288.105469,2.67578125 287.788086,1.68457031 287.15332,1.01074219 C286.518555,0.336914062 285.634766,0 284.501953,0 C283.388672,0 282.53418,0.336914062 281.938477,1.01074219 C281.342773,1.68457031 281.044922,2.67578125 281.044922,3.984375 C281.044922,5.390625 281.37207,6.40136719 282.026367,7.01660156 C282.680664,7.63183594 283.505859,7.93945312 284.501953,7.93945312 Z" id="Path" fill="#E6BDB8" fill-rule="nonzero"></path>
        <path d="M300.46875,7.93945312 C301.582031,7.93945312 302.460938,7.59765625 303.105469,6.9140625 C303.75,6.23046875 304.072266,5.25390625 304.072266,3.984375 C304.072266,2.67578125 303.754883,1.68457031 303.120117,1.01074219 C302.485352,0.336914062 301.601562,0 300.46875,0 C299.355469,0 298.500977,0.336914062 297.905273,1.01074219 C297.30957,1.68457031 297.011719,2.67578125 297.011719,3.984375 C297.011719,5.390625 297.338867,6.40136719 297.993164,7.01660156 C298.647461,7.63183594 299.472656,7.93945312 300.46875,7.93945312 Z" id="Path" fill="#E6BDB8" fill-rule="nonzero"></path>
        <path d="M316.435547,7.93945312 C317.548828,7.93945312 318.427734,7.59765625 319.072266,6.9140625 C319.716797,6.23046875 320.039062,5.25390625 320.039062,3.984375 C320.039062,2.67578125 319.72168,1.68457031 319.086914,1.01074219 C318.452148,0.336914062 317.568359,0 316.435547,0 C315.322266,0 314.467773,0.336914062 313.87207,1.01074219 C313.276367,1.68457031 312.978516,2.67578125 312.978516,3.984375 C312.978516,5.390625 313.305664,6.40136719 313.959961,7.01660156 C314.614258,7.63183594 315.439453,7.93945312 316.435547,7.93945312 Z" id="Path" fill="#E6BDB8" fill-rule="nonzero"></path>
        <polygon id="Path" fill="#E6BDB8" fill-rule="nonzero" points="341.337891 6.23242188 341.337891 1.77929688 326.953125 1.77929688 326.953125 6.23242188"></polygon>
        <path d="M367.294922,7.93945312 C368.408203,7.93945312 369.287109,7.59765625 369.931641,6.9140625 C370.576172,6.23046875 370.898438,5.25390625 370.898438,3.984375 C370.898438,2.67578125 370.581055,1.68457031 369.946289,1.01074219 C369.311523,0.336914062 368.427734,0 367.294922,0 C366.181641,0 365.327148,0.336914062 364.731445,1.01074219 C364.135742,1.68457031 363.837891,2.67578125 363.837891,3.984375 C363.837891,5.390625 364.165039,6.40136719 364.819336,7.01660156 C365.473633,7.63183594 366.298828,7.93945312 367.294922,7.93945312 Z" id="Path" fill="#E6BDB8" fill-rule="nonzero"></path>
        <path d="M383.261719,7.93945312 C384.375,7.93945312 385.253906,7.59765625 385.898438,6.9140625 C386.542969,6.23046875 386.865234,5.25390625 386.865234,3.984375 C386.865234,2.67578125 386.547852,1.68457031 385.913086,1.01074219 C385.27832,0.336914062 384.394531,0 383.261719,0 C382.148438,0 381.293945,0.336914062 380.698242,1.01074219 C380.102539,1.68457031 379.804688,2.67578125 379.804688,3.984375 C379.804688,5.390625 380.131836,6.40136719 380.786133,7.01660156 C381.44043,7.63183594 382.265625,7.93945312 383.261719,7.93945312 Z" id="Path" fill="#E6BDB8" fill-rule="nonzero"></path>
        <path d="M399.228516,7.93945312 C400.341797,7.93945312 401.220703,7.59765625 401.865234,6.9140625 C402.509766,6.23046875 402.832031,5.25390625 402.832031,3.984375 C402.832031,2.67578125 402.514648,1.68457031 401.879883,1.01074219 C401.245117,0.336914062 400.361328,0 399.228516,0 C398.115234,0 397.260742,0.336914062 396.665039,1.01074219 C396.069336,1.68457031 395.771484,2.67578125 395.771484,3.984375 C395.771484,5.390625 396.098633,6.40136719 396.75293,7.01660156 C397.407227,7.63183594 398.232422,7.93945312 399.228516,7.93945312 Z" id="Path" fill="#E6BDB8" fill-rule="nonzero"></path>
    </g>
</svg>