<?xml version="1.0" encoding="UTF-8"?>
<svg width="84px" height="10px" viewBox="0 0 84 10" version="1.1" xmlns="http://www.w3.org/2000/svg" xmlns:xlink="http://www.w3.org/1999/xlink">
    <title>Combined Shape</title>
    <g id="Page-1" stroke="none" stroke-width="1" fill="none" fill-rule="evenodd">
        <path d="M83.8,0 C83.8698679,0 83.9370239,0.00542392227 84.0011522,0.0159559682 L84.0011522,1.98404403 C83.9370239,1.99457608 83.8698679,2 83.8,2 C80.8,2 79.3,3.7 77.6,5.7 C75.8,7.7 73.8,10 69.9,10 C66,10 64,7.7 62.2,5.7 C60.5,3.7 59,2 56,2 C53,2 51.5,3.7 49.8,5.7 C48,7.7 46,10 42.1,10 C38.2,10 36.2,7.7 34.4,5.7 C32.7,3.7 31.2,2 28.2,2 C25.2,2 23.7,3.7 22,5.7 C20.2,7.7 18.2,10 14.3,10 C10.4,10 8.4,7.7 6.6,5.7 C4.9,3.7 3.4,2 0.4,2 C0.390690928,1.48478262 0.390690928,1.15144929 0.4,1 C0.387539312,0.747215149 0.387539312,0.413881815 0.4,0 C4.3,0 6.3,2.3 8.1,4.3 C9.8,6.3 11.3,8 14.3,8 C17.3,8 18.8,6.3 20.5,4.3 C22.3,2.3 24.3,0 28.2,0 C32.1,0 34.1,2.3 35.9,4.3 C37.6,6.3 39.1,8 42.1,8 C45.1,8 46.6,6.3 48.3,4.3 C50.1,2.3 52.1,0 56,0 C60,0 62,2.3 63.7,4.3 C65.4,6.3 66.9,8 69.9,8 C72.9,8 74.4,6.3 76.1,4.3 C77.9,2.3 79.9,0 83.8,0 Z" id="Combined-Shape" fill="#FFD801" fill-rule="nonzero"></path>
    </g>
</svg>