<?xml version="1.0" encoding="UTF-8"?>
<svg width="431px" height="8px" viewBox="0 0 431 8" version="1.1" xmlns="http://www.w3.org/2000/svg" xmlns:xlink="http://www.w3.org/1999/xlink">
    <title>Group 4 Copy</title>
    <g id="Group-4-Copy" stroke="none" stroke-width="1" fill="none" fill-rule="evenodd">
        <rect id="Rectangle" fill-opacity="0" fill="#D8D8D8" x="0" y="0" width="431" height="8"></rect>
        <path d="M3.42738589,8 C4.53112033,8 5.40248963,7.65559656 6.04149378,6.96678967 C6.68049793,6.27798278 7,5.29397294 7,4.01476015 C7,2.69618696 6.68533887,1.69741697 6.0560166,1.01845018 C5.42669433,0.339483395 4.55048409,0 3.42738589,0 C2.32365145,0 1.47648686,0.339483395 0.885892116,1.01845018 C0.295297372,1.69741697 0,2.69618696 0,4.01476015 C0,5.43173432 0.324343015,6.4501845 0.973029046,7.0701107 C1.62171508,7.6900369 2.43983402,8 3.42738589,8 Z" id="Path" fill="#E6BDB8" fill-rule="nonzero"></path>
        <polygon id="Path" fill="#E6BDB8" fill-rule="nonzero" points="28 6 28 2 14 2 14 6"></polygon>
        <polygon id="Path" fill="#E6BDB8" fill-rule="nonzero" points="47 6 47 2 33 2 33 6"></polygon>
        <polygon id="Path" fill="#E6BDB8" fill-rule="nonzero" points="67 6 67 2 53 2 53 6"></polygon>
        <path d="M93.4273859,8 C94.5311203,8 95.4024896,7.65559656 96.0414938,6.96678967 C96.6804979,6.27798278 97,5.29397294 97,4.01476015 C97,2.69618696 96.6853389,1.69741697 96.0560166,1.01845018 C95.4266943,0.339483395 94.5504841,0 93.4273859,0 C92.3236515,0 91.4764869,0.339483395 90.8858921,1.01845018 C90.2952974,1.69741697 90,2.69618696 90,4.01476015 C90,5.43173432 90.324343,6.4501845 90.973029,7.0701107 C91.6217151,7.6900369 92.439834,8 93.4273859,8 Z" id="Path" fill="#E6BDB8" fill-rule="nonzero"></path>
        <polygon id="Path" fill="#E6BDB8" fill-rule="nonzero" points="118 6 118 2 104 2 104 6"></polygon>
        <path d="M128.427386,8 C129.53112,8 130.40249,7.65559656 131.041494,6.96678967 C131.680498,6.27798278 132,5.29397294 132,4.01476015 C132,2.69618696 131.685339,1.69741697 131.056017,1.01845018 C130.426694,0.339483395 129.550484,0 128.427386,0 C127.323651,0 126.476487,0.339483395 125.885892,1.01845018 C125.295297,1.69741697 125,2.69618696 125,4.01476015 C125,5.43173432 125.324343,6.4501845 125.973029,7.0701107 C126.621715,7.6900369 127.439834,8 128.427386,8 Z" id="Path" fill="#E6BDB8" fill-rule="nonzero"></path>
        <polygon id="Path" fill="#E6BDB8" fill-rule="nonzero" points="153 6 153 2 139 2 139 6"></polygon>
        <path d="M163.427386,8 C164.53112,8 165.40249,7.65559656 166.041494,6.96678967 C166.680498,6.27798278 167,5.29397294 167,4.01476015 C167,2.69618696 166.685339,1.69741697 166.056017,1.01845018 C165.426694,0.339483395 164.550484,0 163.427386,0 C162.323651,0 161.476487,0.339483395 160.885892,1.01845018 C160.295297,1.69741697 160,2.69618696 160,4.01476015 C160,5.43173432 160.324343,6.4501845 160.973029,7.0701107 C161.621715,7.6900369 162.439834,8 163.427386,8 Z" id="Path" fill="#E6BDB8" fill-rule="nonzero"></path>
        <polygon id="Path" fill="#E6BDB8" fill-rule="nonzero" points="188 6 188 2 174 2 174 6"></polygon>
        <polygon id="Path" fill="#E6BDB8" fill-rule="nonzero" points="223 6 223 2 209 2 209 6"></polygon>
        <path d="M233.427386,8 C234.53112,8 235.40249,7.65559656 236.041494,6.96678967 C236.680498,6.27798278 237,5.29397294 237,4.01476015 C237,2.69618696 236.685339,1.69741697 236.056017,1.01845018 C235.426694,0.339483395 234.550484,0 233.427386,0 C232.323651,0 231.476487,0.339483395 230.885892,1.01845018 C230.295297,1.69741697 230,2.69618696 230,4.01476015 C230,5.43173432 230.324343,6.4501845 230.973029,7.0701107 C231.621715,7.6900369 232.439834,8 233.427386,8 Z" id="Path" fill="#E6BDB8" fill-rule="nonzero"></path>
        <polygon id="Path" fill="#E6BDB8" fill-rule="nonzero" points="258 6 258 2 244 2 244 6"></polygon>
        <path d="M284.427386,8 C285.53112,8 286.40249,7.65559656 287.041494,6.96678967 C287.680498,6.27798278 288,5.29397294 288,4.01476015 C288,2.69618696 287.685339,1.69741697 287.056017,1.01845018 C286.426694,0.339483395 285.550484,0 284.427386,0 C283.323651,0 282.476487,0.339483395 281.885892,1.01845018 C281.295297,1.69741697 281,2.69618696 281,4.01476015 C281,5.43173432 281.324343,6.4501845 281.973029,7.0701107 C282.621715,7.6900369 283.439834,8 284.427386,8 Z" id="Path" fill="#E6BDB8" fill-rule="nonzero"></path>
        <path d="M300.427386,8 C301.53112,8 302.40249,7.65559656 303.041494,6.96678967 C303.680498,6.27798278 304,5.29397294 304,4.01476015 C304,2.69618696 303.685339,1.69741697 303.056017,1.01845018 C302.426694,0.339483395 301.550484,0 300.427386,0 C299.323651,0 298.476487,0.339483395 297.885892,1.01845018 C297.295297,1.69741697 297,2.69618696 297,4.01476015 C297,5.43173432 297.324343,6.4501845 297.973029,7.0701107 C298.621715,7.6900369 299.439834,8 300.427386,8 Z" id="Path" fill="#E6BDB8" fill-rule="nonzero"></path>
        <path d="M316.427386,8 C317.53112,8 318.40249,7.65559656 319.041494,6.96678967 C319.680498,6.27798278 320,5.29397294 320,4.01476015 C320,2.69618696 319.685339,1.69741697 319.056017,1.01845018 C318.426694,0.339483395 317.550484,0 316.427386,0 C315.323651,0 314.476487,0.339483395 313.885892,1.01845018 C313.295297,1.69741697 313,2.69618696 313,4.01476015 C313,5.43173432 313.324343,6.4501845 313.973029,7.0701107 C314.621715,7.6900369 315.439834,8 316.427386,8 Z" id="Path" fill="#E6BDB8" fill-rule="nonzero"></path>
        <polygon id="Path" fill="#E6BDB8" fill-rule="nonzero" points="341 6 341 2 327 2 327 6"></polygon>
        <path d="M367.427386,8 C368.53112,8 369.40249,7.65559656 370.041494,6.96678967 C370.680498,6.27798278 371,5.29397294 371,4.01476015 C371,2.69618696 370.685339,1.69741697 370.056017,1.01845018 C369.426694,0.339483395 368.550484,0 367.427386,0 C366.323651,0 365.476487,0.339483395 364.885892,1.01845018 C364.295297,1.69741697 364,2.69618696 364,4.01476015 C364,5.43173432 364.324343,6.4501845 364.973029,7.0701107 C365.621715,7.6900369 366.439834,8 367.427386,8 Z" id="Path" fill="#E6BDB8" fill-rule="nonzero"></path>
        <path d="M383.427386,8 C384.53112,8 385.40249,7.65559656 386.041494,6.96678967 C386.680498,6.27798278 387,5.29397294 387,4.01476015 C387,2.69618696 386.685339,1.69741697 386.056017,1.01845018 C385.426694,0.339483395 384.550484,0 383.427386,0 C382.323651,0 381.476487,0.339483395 380.885892,1.01845018 C380.295297,1.69741697 380,2.69618696 380,4.01476015 C380,5.43173432 380.324343,6.4501845 380.973029,7.0701107 C381.621715,7.6900369 382.439834,8 383.427386,8 Z" id="Path" fill="#E6BDB8" fill-rule="nonzero"></path>
        <path d="M399.427386,8 C400.53112,8 401.40249,7.65559656 402.041494,6.96678967 C402.680498,6.27798278 403,5.29397294 403,4.01476015 C403,2.69618696 402.685339,1.69741697 402.056017,1.01845018 C401.426694,0.339483395 400.550484,0 399.427386,0 C398.323651,0 397.476487,0.339483395 396.885892,1.01845018 C396.295297,1.69741697 396,2.69618696 396,4.01476015 C396,5.43173432 396.324343,6.4501845 396.973029,7.0701107 C397.621715,7.6900369 398.439834,8 399.427386,8 Z" id="Path" fill="#E6BDB8" fill-rule="nonzero"></path>
        <path d="M427.427386,8 C428.53112,8 429.40249,7.65559656 430.041494,6.96678967 C430.680498,6.27798278 431,5.29397294 431,4.01476015 C431,2.69618696 430.685339,1.69741697 430.056017,1.01845018 C429.426694,0.339483395 428.550484,0 427.427386,0 C426.323651,0 425.476487,0.339483395 424.885892,1.01845018 C424.295297,1.69741697 424,2.69618696 424,4.01476015 C424,5.43173432 424.324343,6.4501845 424.973029,7.0701107 C425.621715,7.6900369 426.439834,8 427.427386,8 Z" id="Path" fill-opacity="0" fill="#E6BDB8" fill-rule="nonzero"></path>
    </g>
</svg>