<?xml version="1.0" encoding="UTF-8"?>
<svg width="273px" height="100px" viewBox="0 0 273 100" version="1.1" xmlns="http://www.w3.org/2000/svg" xmlns:xlink="http://www.w3.org/1999/xlink">
    <title>Group</title>
    <g id="Page-7" stroke="none" stroke-width="1" fill="none" fill-rule="evenodd">
        <g id="Home-Page-Copy-5" transform="translate(-37.000000, -44.000000)" fill-rule="nonzero">
            <g id="Group" transform="translate(37.000000, 44.000000)">
                <path d="M56.5,61 C59.2348485,61 61.5018939,60.1040052 63.3011364,58.3120155 C65.1003788,56.5200258 66,54.2248062 66,51.4263566 C66,48.627907 65.1003788,46.3572351 63.3011364,44.6143411 C61.5018939,42.871447 59.2348485,42 56.5,42 C53.7651515,42 51.4981061,42.871447 49.6988636,44.6143411 C47.8996212,46.3572351 47,48.627907 47,51.4263566 C47,54.2248062 47.8996212,56.5200258 49.6988636,58.3120155 C51.4981061,60.1040052 53.7651515,61 56.5,61 Z" id="Path" fill="#004376"></path>
                <polygon id="Path" fill="#004376" points="90.0914052 60 90.0914052 47.3957143 93.9959072 43.0971429 106.888131 60 127 60 105.341064 31.44 125.968622 9 107.035471 9 90.0914052 27.5057143 90.0914052 9 73 9 73 60"></polygon>
                <path d="M145.787234,19 C149.319149,19 152.542553,19.8148148 155.457447,21.4444444 C158.37234,23.0740741 160.691489,25.4691358 162.414894,28.6296296 C164.138298,31.7901235 165,35.5679012 165,39.962963 C165,40.2098765 164.93617,41.5185185 164.808511,43.8888889 L164.808511,43.8888889 L140.553191,43.8888889 L140.659858,44.1902881 C141.178818,45.5745405 141.994326,46.6469136 143.106383,47.4074074 C144.297872,48.2222222 145.787234,48.6296296 147.574468,48.6296296 C149.106383,48.6296296 150.393617,48.4074074 151.43617,47.962963 C152.478723,47.5185185 153.617021,46.7530864 154.851064,45.6666667 L154.851064,45.6666667 L162.382979,54.4814815 L162.142745,54.781143 C158.741298,58.9270477 153.736269,61 147.12766,61 C142.914894,61 139.212766,60.0987654 136.021277,58.2962963 C132.829787,56.4938272 130.361702,53.9876543 128.617021,50.7777778 C126.87234,47.5679012 126,43.962963 126,39.962963 C126,35.9135802 126.861702,32.2962963 128.585106,29.1111111 C130.308511,25.9259259 132.670213,23.4444444 135.670213,21.6666667 C138.670213,19.8888889 142.042553,19 145.787234,19 Z M146.065217,30.3513514 C144.641469,30.3513514 143.461792,30.8437616 142.526186,31.828582 C141.59058,32.8134024 140.980402,34.2128841 140.695652,36.027027 L140.695652,36.027027 L151.434783,36.027027 C151.150033,34.2647168 150.539855,32.8781933 149.604249,31.8674565 C148.668643,30.8567197 147.488966,30.3513514 146.065217,30.3513514 Z" id="Combined-Shape" fill="#004376"></path>
                <path d="M178,16 C181.039216,16 183.465686,15.2231884 185.279412,13.6695652 C187.093137,12.115942 188,10.1333333 188,7.72173913 C188,5.44927536 187.093137,3.5942029 185.279412,2.15652174 C183.465686,0.71884058 181.039216,0 178,0 C175.009804,0 172.595588,0.753623188 170.757353,2.26086957 C168.919118,3.76811594 168,5.68115942 168,8 C168,10.3188406 168.919118,12.2318841 170.757353,13.7391304 C172.595588,15.2463768 175.009804,16 178,16 Z" id="Path" fill="#004376"></path>
                <polygon id="Path" fill="#004376" points="186 61 186 20 170 20 170 61"></polygon>
                <path d="M213.874172,61 C218.147903,61 221.523179,60.2892157 224,58.8676471 L224,58.8676471 L220.066225,47.3235294 C218.997792,48.0588235 217.759382,48.4264706 216.350993,48.4264706 C215.331126,48.4264706 214.505519,48.0833333 213.874172,47.3970588 C213.242826,46.7107843 212.927152,45.754902 212.927152,44.5294118 L212.927152,44.5294118 L212.927152,34.3823529 L221.086093,34.3823529 L221.086093,22.25 L212.927152,22.25 L212.927152,11 L196.463576,11 L196.463576,22.25 L191,22.25 L191,34.3823529 L196.463576,34.3823529 L196.463576,44.6764706 C196.463576,50.1176471 197.969095,54.1985294 200.980132,56.9191176 C203.99117,59.6397059 208.289183,61 213.874172,61 Z" id="Path" fill="#004376"></path>
                <path d="M244.837748,60 L244.837748,41.296496 C244.837748,38.5309973 245.421358,36.5053908 246.588576,35.2196765 C247.755795,33.9339623 249.283113,33.2911051 251.17053,33.2911051 C254.498344,33.2911051 256.162252,35.5714286 256.162252,40.1320755 L256.162252,40.1320755 L256.162252,60 L273,60 L273,37.2938005 C273,31.3261456 271.472682,26.8625337 268.418046,23.902965 C265.363411,20.9433962 261.327815,19.4636119 256.311258,19.4636119 C251.791391,19.4636119 247.966887,20.7735849 244.837748,23.393531 L244.837748,23.393531 L244.837748,6 L228,6 L228,60 L244.837748,60 Z" id="Path" fill="#004376"></path>
                <path d="M20.3759366,98.678 L29.2805755,76.253 L20.6187904,76.253 L15.8426659,88.2649287 L11.3903465,76.253 L2,76.253 L10.9046389,98.678 L20.3759366,98.678 Z M37.9738575,99.253 C41.0690715,99.253 43.1369946,98.1442404 44.1776269,95.9267213 L44.1776269,95.9267213 L44.1776269,98.8473563 L52.5827338,98.8473563 L52.5827338,86.9214303 C52.5827338,83.2976796 51.5687844,80.6136702 49.5408856,78.8694021 C47.5129868,77.125134 44.5778701,76.253 40.7355355,76.253 C38.9744655,76.253 37.2067248,76.4761041 35.4323133,76.9223122 C33.6579018,77.3685203 32.1436485,77.9837466 30.8895531,78.7679912 L30.8895531,78.7679912 L33.7713041,84.8120829 C34.4917418,84.2712246 35.3589354,83.8452986 36.3728848,83.5343051 C37.3868342,83.2233116 38.3874422,83.0678148 39.3747087,83.0678148 C41.8295336,83.0678148 43.2037018,83.9331881 43.4972135,85.6639347 L43.4972135,85.6639347 L39.8550005,85.6639347 C36.4929577,85.6639347 33.9847671,86.231836 32.3304286,87.3676384 C30.6760901,88.5034409 29.8489209,90.1665802 29.8489209,92.3570564 C29.8489209,93.6551164 30.1624447,94.8247225 30.7894923,95.8658748 C31.41654,96.907027 32.3370993,97.731836 33.5511703,98.3403016 C34.7652413,98.9487672 36.2394704,99.253 37.9738575,99.253 Z M40.5838273,93.503 C39.9018129,93.503 39.3630216,93.3432778 38.9674532,93.0238333 C38.5718849,92.7043889 38.3741007,92.3018889 38.3741007,91.8163333 C38.3741007,90.6407778 39.3152806,90.053 41.1976403,90.053 L41.1976403,90.053 L43.4892086,90.053 L43.4892086,91.5096667 C43.2436835,92.1741111 42.8617554,92.6724444 42.3434245,93.0046667 C41.8250935,93.3368889 41.2385612,93.503 40.5838273,93.503 Z M65.7054886,98.678 L65.7054886,88.3310969 C65.7054886,86.8012047 66.0224383,85.6806257 66.6563378,84.96936 C67.2902373,84.2580943 68.1197016,83.9024614 69.1447306,83.9024614 C70.9520185,83.9024614 71.8556625,85.1639515 71.8556625,87.6869318 L71.8556625,87.6869318 L71.8556625,98.678 L81,98.678 L81,86.1167792 C81,82.8154327 80.1705358,80.3461329 78.5116073,78.7088797 C76.8526788,77.0716266 74.661005,76.253 71.9365858,76.253 C70.6148379,76.253 69.3875006,76.4677217 68.2545738,76.8971652 C67.1216471,77.3266086 66.1235925,77.9707738 65.2604102,78.8296607 L65.2604102,78.8296607 L65.2604102,76.6556032 L56.5611511,76.6556032 L56.5611511,98.678 L65.7054886,98.678 Z" id="van" fill="#47A8BD"></path>
                <path d="M103.29415,98 C106.115758,98 108.514125,97.5840164 110.489251,96.7520492 C112.464377,95.920082 113.94908,94.7975865 114.943361,93.3845628 C115.937642,91.9715392 116.434783,90.3934426 116.434783,88.6502732 C116.434783,86.6429872 115.890615,85.0582878 114.802281,83.8961749 C113.713946,82.7340619 112.430786,81.8954918 110.952801,81.3804645 C109.474816,80.8654372 107.660925,80.4098361 105.511128,80.0136612 C103.845035,79.6967213 102.649211,79.3995902 101.923655,79.1222678 C101.198098,78.8449454 100.83532,78.4289617 100.83532,77.8743169 C100.83532,76.712204 102.058017,76.1311475 104.503411,76.1311475 C106.975677,76.1311475 109.595742,76.8178506 112.363605,78.1912568 L112.363605,78.1912568 L115.225522,71.4166667 C113.801282,70.6243169 112.155343,70.0234517 110.287708,69.614071 C108.420072,69.2046903 106.518845,69 104.584028,69 C101.76242,69 99.3640529,69.4093807 97.3889272,70.2281421 C95.4138014,71.0469035 93.9290981,72.1693989 92.9348171,73.5956284 C91.9405361,75.0218579 91.4433956,76.6065574 91.4433956,78.3497268 C91.4433956,80.3570128 91.9808448,81.9483151 93.0557431,83.1236339 C94.1306415,84.2989526 95.3936471,85.1441257 96.8447599,85.659153 C98.2958727,86.1741803 100.109764,86.6561931 102.286433,87.1051913 C103.979398,87.4485428 105.195377,87.7654827 105.934369,88.0560109 C106.673362,88.3465392 107.042858,88.7823315 107.042858,89.363388 C107.042858,89.8652095 106.760697,90.2415756 106.196376,90.4924863 C105.632054,90.7433971 104.691518,90.8688525 103.374767,90.8688525 C101.843037,90.8688525 100.244126,90.6377505 98.5780335,90.1755464 C96.911941,89.7133424 95.4070833,89.0992714 94.0634603,88.3333333 L94.0634603,88.3333333 L91,95.147541 C92.4242403,96.0191257 94.2448494,96.7124317 96.4618273,97.227459 C98.6788052,97.7424863 100.956246,98 103.29415,98 Z M129.537096,97.4423077 C131.879483,97.4423077 133.729437,97.0617647 135.086957,96.3006787 L135.086957,96.3006787 L132.930895,90.1201357 C132.345299,90.5138009 131.666539,90.7106335 130.894616,90.7106335 C130.335637,90.7106335 129.88313,90.5269231 129.537096,90.1595023 C129.191061,89.7920814 129.018044,89.2803167 129.018044,88.6242081 L129.018044,88.6242081 L129.018044,83.191629 L133.489874,83.191629 L133.489874,76.6961538 L129.018044,76.6961538 L129.018044,70.6730769 L119.994529,70.6730769 L119.994529,76.6961538 L117,76.6961538 L117,83.191629 L119.994529,83.191629 L119.994529,88.7029412 C119.994529,91.6160633 120.819688,93.800905 122.470007,95.2574661 C124.120325,96.7140271 126.476021,97.4423077 129.537096,97.4423077 Z M146.47205,97.4423077 L146.47205,87.7102265 C146.47205,84.5596488 148.033126,82.9843599 151.15528,82.9843599 C151.774327,82.9843599 152.447205,83.0377595 153.173913,83.1445588 L153.173913,83.1445588 L153.173913,75.1346154 C150.024845,75.1346154 147.642857,76.0557589 146.02795,77.8980459 L146.02795,77.8980459 L146.02795,75.5351126 L137.347826,75.5351126 L137.347826,97.4423077 L146.47205,97.4423077 Z M162.949786,97.4423077 C166.027965,97.4423077 168.084507,96.3669222 169.119412,94.2161511 L169.119412,94.2161511 L169.119412,97.048874 L177.478261,97.048874 L177.478261,85.4819224 C177.478261,81.9672478 176.469892,79.3640279 174.453154,77.6722629 C172.436416,75.9804979 169.517453,75.1346154 165.696265,75.1346154 C163.944887,75.1346154 162.186875,75.3510039 160.422229,75.783781 C158.657583,76.2165581 157.151664,76.813266 155.90447,77.5739045 L155.90447,77.5739045 L158.770361,83.436067 C159.486834,82.9114887 160.349255,82.4983833 161.357624,82.1967508 C162.365993,81.8951183 163.361094,81.744302 164.342927,81.744302 C166.784242,81.744302 168.150847,82.5836273 168.442743,84.2622778 L168.442743,84.2622778 L164.820576,84.2622778 C161.477036,84.2622778 158.98265,84.8130851 157.337416,85.9146995 C155.692182,87.0163139 154.869565,88.6293922 154.869565,90.7539343 C154.869565,92.0129223 155.181364,93.1473228 155.80496,94.1571361 C156.428557,95.1669493 157.34405,95.9669312 158.551439,96.5570818 C159.758828,97.1472324 161.224944,97.4423077 162.949786,97.4423077 Z M165.545391,91.8653846 C164.86713,91.8653846 164.331304,91.7104701 163.937913,91.400641 C163.544522,91.090812 163.347826,90.7004274 163.347826,90.2294872 C163.347826,89.0893162 164.283826,88.5192308 166.155826,88.5192308 L166.155826,88.5192308 L168.434783,88.5192308 L168.434783,89.9320513 C168.190609,90.5764957 167.810783,91.0598291 167.295304,91.3820513 C166.779826,91.7042735 166.196522,91.8653846 165.545391,91.8653846 Z M188.384568,97.4423077 C191.462747,97.4423077 193.51929,96.3669222 194.554195,94.2161511 L194.554195,94.2161511 L194.554195,97.048874 L202.913043,97.048874 L202.913043,85.4819224 C202.913043,81.9672478 201.904674,79.3640279 199.887936,77.6722629 C197.871198,75.9804979 194.952235,75.1346154 191.131047,75.1346154 C189.379669,75.1346154 187.621657,75.3510039 185.857012,75.783781 C184.092366,76.2165581 182.586446,76.813266 181.339253,77.5739045 L181.339253,77.5739045 L184.205144,83.436067 C184.921617,82.9114887 185.784038,82.4983833 186.792407,82.1967508 C187.800776,81.8951183 188.795877,81.744302 189.77771,81.744302 C192.219024,81.744302 193.58563,82.5836273 193.877526,84.2622778 L193.877526,84.2622778 L190.255358,84.2622778 C186.911819,84.2622778 184.417432,84.8130851 182.772198,85.9146995 C181.126965,87.0163139 180.304348,88.6293922 180.304348,90.7539343 C180.304348,92.0129223 180.616146,93.1473228 181.239743,94.1571361 C181.863339,95.1669493 182.778832,95.9669312 183.986222,96.5570818 C185.193611,97.1472324 186.659726,97.4423077 188.384568,97.4423077 Z M190.980174,91.8653846 C190.301913,91.8653846 189.766087,91.7104701 189.372696,91.400641 C188.979304,91.090812 188.782609,90.7004274 188.782609,90.2294872 C188.782609,89.0893162 189.718609,88.5192308 191.590609,88.5192308 L191.590609,88.5192308 L193.869565,88.5192308 L193.869565,89.9320513 C193.625391,90.5764957 193.245565,91.0598291 192.730087,91.3820513 C192.214609,91.7042735 191.631304,91.8653846 190.980174,91.8653846 Z M217.711009,97.4423077 C220.053396,97.4423077 221.90335,97.0617647 223.26087,96.3006787 L223.26087,96.3006787 L221.104809,90.1201357 C220.519212,90.5138009 219.840452,90.7106335 219.068529,90.7106335 C218.50955,90.7106335 218.057043,90.5269231 217.711009,90.1595023 C217.364974,89.7920814 217.191957,89.2803167 217.191957,88.6242081 L217.191957,88.6242081 L217.191957,83.191629 L221.663787,83.191629 L221.663787,76.6961538 L217.191957,76.6961538 L217.191957,70.6730769 L208.168442,70.6730769 L208.168442,76.6961538 L205.173913,76.6961538 L205.173913,83.191629 L208.168442,83.191629 L208.168442,88.7029412 C208.168442,91.6160633 208.993601,93.800905 210.64392,95.2574661 C212.294238,96.7140271 214.649934,97.4423077 217.711009,97.4423077 Z M235.414431,97.4423077 C238.944496,97.4423077 241.597595,96.2882354 243.373728,93.9800909 L243.373728,93.9800909 L239.444033,89.2982295 C238.800185,89.8752657 238.20629,90.2818139 237.66235,90.5178741 C237.118409,90.7539343 236.446809,90.8719645 235.647549,90.8719645 C234.715079,90.8719645 233.93802,90.6555759 233.316374,90.2227988 C232.694727,89.7900217 232.250694,89.167085 231.984274,88.3539886 L231.984274,88.3539886 L244.639223,88.3539886 C244.705828,87.0950007 244.73913,86.3999344 244.73913,86.2687899 C244.73913,83.9344164 244.289547,81.9279044 243.390379,80.2492538 C242.491212,78.5706033 241.281221,77.2985009 239.760407,76.4329467 C238.239593,75.5673925 236.557817,75.1346154 234.715079,75.1346154 C232.761332,75.1346154 231.00185,75.6067359 229.436633,76.5509768 C227.871415,77.4952177 226.639223,78.8132207 225.740056,80.5049858 C224.840888,82.1967508 224.391304,84.1180188 224.391304,86.2687899 C224.391304,88.393332 224.846438,90.3080428 225.756707,92.0129223 C226.666975,93.7178017 227.954672,95.0489192 229.619796,96.0062746 C231.284921,96.96363 233.216466,97.4423077 235.414431,97.4423077 Z M237.391304,84.0576923 L231.73913,84.0576923 C231.888999,83.1664032 232.210145,82.4788374 232.702569,81.9949947 C233.194993,81.5111521 233.815876,81.2692308 234.565217,81.2692308 C235.314559,81.2692308 235.935441,81.5175184 236.427866,82.0140938 C236.92029,82.5106691 237.241436,83.1918686 237.391304,84.0576923 L237.391304,84.0576923 Z M257.789663,97.4423077 L257.789663,87.1495305 C257.789663,85.6276412 258.104869,84.5129241 258.735279,83.8053791 C259.36569,83.0978341 260.190589,82.7440616 261.209977,82.7440616 C263.007318,82.7440616 263.905989,83.9989527 263.905989,86.508735 L263.905989,86.508735 L263.905989,97.4423077 L273,97.4423077 L273,84.946796 C273,81.6627192 272.175101,79.2063366 270.525302,77.5776481 C268.875504,75.9489596 266.695892,75.1346154 263.986467,75.1346154 C262.671993,75.1346154 261.451411,75.3482139 260.324719,75.7754109 C259.198028,76.2026078 258.205466,76.8434033 257.347034,77.6977973 L257.347034,77.6977973 L257.347034,75.5351126 L248.695652,75.5351126 L248.695652,97.4423077 L257.789663,97.4423077 Z" id="Straaten" fill="#47A8BD"></path>
                <path d="M23.828329,10 L40,10 L40,43.15 C39.6393129,47.5444348 38.9947522,50.5666571 38.0663179,52.2166667 C34.7426677,58.1234442 28.2895363,60.9925629 21.2251864,61 C7.40029361,61 0.325231474,54.5777778 0,41.7333333 L13.9226284,41.7333333 C13.9210458,43.4470782 14.1857907,44.8826123 14.7168632,46.0399356 C15.5134721,47.7759207 17.1881484,48.5187775 19.2829122,48.5187775 C20.4064661,48.5187775 23.828329,48.0702587 23.828329,41.7333333 C23.646309,35.8822191 23.646309,25.3044413 23.828329,10 Z" id="Path-2" fill="#004376"></path>
            </g>
        </g>
    </g>
</svg>